<?xml version="1.0" encoding="utf-8"?>
<!-- Generator: Adobe Illustrator 16.0.0, SVG Export Plug-In . SVG Version: 6.00 Build 0)  -->
<!DOCTYPE svg PUBLIC "-//W3C//DTD SVG 1.1//EN" "http://www.w3.org/Graphics/SVG/1.1/DTD/svg11.dtd">
<svg version="1.1" xmlns="http://www.w3.org/2000/svg" xmlns:xlink="http://www.w3.org/1999/xlink" x="0px" y="0px" width="1024px"
	 height="1024px" viewBox="0 0 1024 1024" enable-background="new 0 0 1024 1024" xml:space="preserve">
<g id="Layer_1">
	<rect fill="#6D0912" width="1024" height="205"/>
	<rect y="205" fill="#DBCCAB" width="1024" height="206"/>
	<rect y="408" fill="#6D0912" width="1024" height="205"/>
	<rect y="613" fill="#DBCCAB" width="1024" height="206"/>
	<rect y="819" fill="#6D0912" width="1024" height="205"/>
	<rect x="102" y="103" fill="#001E40" width="819" height="819"/>
	<polygon fill="#DBCCAB" points="511.5,276.772 564.536,440 736.164,440 597.314,540.632 650.35,703.734 511.5,602.793 
		372.65,703.642 425.686,540.647 286.836,440 458.464,440 	"/>
</g>
<g id="Layer_2" display="none">
	<rect display="inline" fill="#6D0912" width="1024" height="79"/>
	<rect y="79" display="inline" fill="#DBCCAB" width="1024" height="79"/>
	<rect y="157" display="inline" fill="#6D0912" width="1024" height="79"/>
	<rect y="236" display="inline" fill="#DBCCAB" width="1024" height="79"/>
	<rect y="315" display="inline" fill="#6D0912" width="1024" height="79"/>
	<rect y="394" display="inline" fill="#DBCCAB" width="1024" height="79"/>
	<rect y="472" display="inline" fill="#6D0912" width="1024" height="79"/>
	<rect y="551" display="inline" fill="#DBCCAB" width="1024" height="79"/>
	<rect y="630" display="inline" fill="#6D0912" width="1024" height="79"/>
	<rect y="709" display="inline" fill="#DBCCAB" width="1023" height="79"/>
	<rect y="787" display="inline" fill="#6D0912" width="1024" height="79"/>
	<rect y="866" display="inline" fill="#DBCCAB" width="1024" height="79"/>
	<rect y="945" display="inline" fill="#6D0912" width="1024" height="79"/>
</g>
</svg>
